#!OML:ASF \\sashay\E\Suitcase\Project 1\Capture day 1\Session 1\Male1.ASF
:FULLY-SPECIFIED
:DEGREES
588
root 0.52939 17.2827 -2.82286 2.54852 -4.16948 2.18837
lowerback 8.95312 1.54247 -6.18646
upperback 1.75659 1.48929 0.678755
thorax -3.36672 0.80262 4.01443
lowerneck -21.2119 0.950448 -0.0807711
upperneck 12.3714 1.73817 -2.47373
head 7.27304 0.582656 -0.592669
rclavicle -4.17448e-015 1.98785e-016
rhumerus -61.7158 -42.5967 -31.743
rradius 9.25827
rwrist 26.5405
rhand -14.2172 3.28849
rfingers 7.12502
rthumb 11.9197 -26.3522
lclavicle -4.17448e-015 1.98785e-016
lhumerus -43.1744 13.4581 71.6494
lradius 26.3949
lwrist -8.1592
lhand 1.55216 42.197
lfingers 7.12502
lthumb 27.0762 70.2755
rfemur -14.7139 -5.33829 15.2736
rtibia 70.6966
rfoot 4.9774 -4.34037
rtoes 7.57035
lfemur -16.1498 -6.38455 -28.0323
ltibia 27.1504
lfoot -14.6859 -0.903143
ltoes 18.7114
589
root 0.525738 17.2987 -2.6609 2.3882 -4.00117 2.3554
lowerback 8.99993 1.43446 -6.35218
upperback 1.47259 1.31282 0.524544
thorax -3.66932 0.73251 3.96484
lowerneck -20.7665 1.04697 -0.600038
upperneck 12.7312 1.83316 -1.39403
head 7.30234 0.707743 -0.142215
rclavicle -1.44367e-014 -8.94531e-016
rhumerus -61.2995 -42.3452 -32.4823
rradius 8.93995
rwrist 26.9476
rhand -14.3333 2.39348
rfingers 7.12502
rthumb 11.8077 -27.2536
lclavicle -1.44367e-014 -8.94531e-016
lhumerus -42.9457 13.5668 71.0793
lradius 26.3903
lwrist -8.28861
lhand 0.0779204 40.8987
lfingers 7.12502
lthumb 25.665 69.1887
rfemur -15.9047 -5.1808 15.1872
rtibia 71.5779
rfoot 3.54961 -5.13747
rtoes 9.09873
lfemur -15.2124 -6.52978 -28.2372
ltibia 26.8882
lfoot -14.9893 -1.38427
ltoes 21.3115
590
root 0.522167 17.3005 -2.52311 2.1038 -3.53398 2.31197
lowerback 9.07097 1.24325 -6.30796
upperback 1.65709 1.06653 0.59242
thorax -3.48745 0.600058 4.04249
lowerneck -20.4463 0.860282 -0.432148
upperneck 12.5138 1.60025 -1.82236
head 7.18278 0.566888 -0.33982
rclavicle -1.87106e-014 -1.5704e-014
rhumerus -60.5376 -42.4994 -33.2969
rradius 9.06179
rwrist 26.6734
rhand -14.6241 2.65225
rfingers 7.12502
rthumb 11.5273 -27.0108
lclavicle -1.87106e-014 -1.5704e-014
lhumerus -41.8594 13.7112 71.3139
lradius 26.4837
lwrist -7.72075
lhand -1.16323 41.8284
lfingers 7.12502
lthumb 24.4757 70.2846
rfemur -16.9351 -5.59342 15.339
rtibia 72.2187
rfoot 2.75486 -5.8195
rtoes 10.6947
lfemur -14.2078 -6.47176 -28.2207
ltibia 26.5447
lfoot -15.2573 -2.20564
ltoes 22.833
591
root 0.50809 17.3037 -2.39695 2.18694 -3.15394 1.86014
lowerback 8.97824 1.14302 -6.03463
upperback 1.57298 0.968948 0.722503
thorax -3.51035 0.552208 4.03684
lowerneck -20.3496 1.11752 -0.585163
upperneck 12.8708 1.95558 -1.58093
head 7.28277 0.749555 -0.192999
rclavicle 1.23743e-014 9.83984e-015
rhumerus -59.975 -42.8025 -33.9483
rradius 8.86771
rwrist 27.016
rhand -15.0006 1.7947
rfingers 7.12502
rthumb 11.1642 -27.8883
lclavicle 1.23743e-014 9.83984e-015
lhumerus -40.8849 13.7486 71.2172
lradius 26.4506
lwrist -7.61063
lhand -2.85 42.0334
lfingers 7.12502
lthumb 22.8579 70.6988
rfemur -18.4413 -5.68839 16.1681
rtibia 72.6966
rfoot 1.86759 -6.51729
rtoes 10.7803
lfemur -13.7217 -6.34228 -27.7053
ltibia 26.2862
lfoot -15.3501 -2.45662
ltoes 22.3308
592
root 0.506373 17.3034 -2.24482 1.87195 -2.66186 2.22297
lowerback 8.85063 1.02067 -6.46597
upperback 1.78112 0.779763 0.693098
thorax -3.20448 0.447886 4.27484
lowerneck -19.8514 0.932044 -0.166701
upperneck 12.3318 1.6583 -2.08177
head 7.03018 0.58867 -0.462656
rclavicle 6.63444e-015 1.09332e-014
rhumerus -59.5632 -42.9036 -34.4515
rradius 9.01847
rwrist 26.7848
rhand -15.6722 2.74438
rfingers 7.12502
rthumb 10.5164 -26.9725
lclavicle 6.63444e-015 1.09332e-014
lhumerus -39.5499 14.3748 71.1729
lradius 25.9998
lwrist -7.72971
lhand -4.02872 41.6511
lfingers 7.12502
lthumb 21.7264 70.4518
rfemur -19.1433 -5.99053 15.8319
rtibia 72.9408
rfoot 0.474747 -6.86456
rtoes 11.0679
lfemur -12.6295 -6.18194 -28.2406
ltibia 26.0194
lfoot -15.795 -2.9563
ltoes 21.2894
593
root 0.508843 17.298 -2.10807 1.74461 -1.9116 2.49045
lowerback 8.98246 0.80988 -6.62611
upperback 1.75381 0.470565 0.575858
thorax -3.26857 0.298382 4.27842
lowerneck -20.2918 0.810008 -0.556493
upperneck 12.9252 1.51783 -1.50028
head 7.28816 0.549495 -0.22353
rclavicle 3.03147e-015 -4.96962e-015
rhumerus -59.222 -43.0218 -34.9904
rradius 8.93905
rwrist 26.9547
rhand -15.7637 2.84076
rfingers 7.12502
rthumb 10.4282 -26.8806
lclavicle 3.03147e-015 -4.96962e-015
lhumerus -38.8802 13.965 71.4069
lradius 26.7249
lwrist -6.82819
lhand -5.11665 40.0131
lfingers 7.12502
lthumb 20.6813 68.9311
rfemur -20.0451 -6.51073 15.6168
rtibia 72.9871
rfoot -0.955859 -7.0387
rtoes 11.6917
lfemur -11.8424 -6.15608 -28.6488
ltibia 25.8228
lfoot -16.1886 -3.52706
ltoes 19.6369
